solid lcdcase
facet normal 0.0 -1.0 0.0
outer loop
vertex 170.5 105.0 8.0
vertex 3.49999999999997 105.0 2.0
vertex 170.5 105.0 2.0
endloop
endfacet
facet normal 0.0 -1.0 0.0
outer loop
vertex 3.49999999999997 105.0 2.0
vertex 170.5 105.0 8.0
vertex 3.49999999999997 105.0 8.0
endloop
endfacet
facet normal 0.0 -1.0 0.0
outer loop
vertex 3.49999999999997 105.0 8.0
vertex 170.5 105.0 8.0
vertex 170.0 105.0 8.0
endloop
endfacet
facet normal 0.0 -1.0 0.0
outer loop
vertex 3.49999999999997 105.0 8.0
vertex 170.0 105.0 8.0
vertex 3.99999999999999 105.0 8.0
endloop
endfacet
facet normal 3.52495810318487e-017 3.52495810318487e-016 1.0
outer loop
vertex 96.9999999999999 0.0 2.0
vertex 76.9999999999999 3.0 2.0
vertex 76.9999999999999 0.0 2.0
endloop
endfacet
facet normal 3.52495810318487e-017 3.52495810318487e-016 1.0
outer loop
vertex 76.9999999999999 3.0 2.0
vertex 96.9999999999999 0.0 2.0
vertex 96.9999999999999 3.0 2.0
endloop
endfacet
facet normal 0.0 -1.0 0.0
outer loop
vertex 168.0 102.0 2.00000000000001
vertex 8.99999999999996 102.0 1.00000000000001
vertex 168.0 102.0 1.00000000000001
endloop
endfacet
facet normal 0.0 -1.0 0.0
outer loop
vertex 8.99999999999996 102.0 1.00000000000001
vertex 168.0 102.0 2.00000000000001
vertex 8.99999999999996 102.0 2.00000000000001
endloop
endfacet
facet normal -1.0 0.0 0.0
outer loop
vertex 168.0 102.0 2.00000000000001
vertex 168.0 10.0 1.00000000000001
vertex 168.0 10.0 2.00000000000001
endloop
endfacet
facet normal -1.0 0.0 0.0
outer loop
vertex 168.0 10.0 1.00000000000001
vertex 168.0 102.0 2.00000000000001
vertex 168.0 102.0 1.00000000000001
endloop
endfacet
facet normal -0.0 1.0 -0.0
outer loop
vertex 8.99999999999996 10.0 2.0
vertex 168.0 10.0 1.00000000000001
vertex 8.99999999999996 10.0 1.0
endloop
endfacet
facet normal -0.0 1.0 -0.0
outer loop
vertex 168.0 10.0 1.00000000000001
vertex 8.99999999999996 10.0 2.0
vertex 168.0 10.0 2.00000000000001
endloop
endfacet
facet normal 2.386399019745e-017 0.707106781186548 -0.707106781186547
outer loop
vertex 8.99999999999996 10.0 1.0
vertex 169.0 8.99999999999999 0.0
vertex 7.99999999999992 9.0 0.0
endloop
endfacet
facet normal 2.386399019745e-017 0.707106781186548 -0.707106781186547
outer loop
vertex 169.0 8.99999999999999 0.0
vertex 8.99999999999996 10.0 1.0
vertex 168.0 10.0 1.00000000000001
endloop
endfacet
facet normal 0.707106781186532 4.09868552283871e-017 -0.707106781186563
outer loop
vertex 8.99999999999996 102.0 1.00000000000001
vertex 7.99999999999992 9.0 0.0
vertex 7.99999999999991 103.0 0.0
endloop
endfacet
facet normal 0.707106781186532 4.09868552283871e-017 -0.707106781186563
outer loop
vertex 7.99999999999992 9.0 0.0
vertex 8.99999999999996 102.0 1.00000000000001
vertex 8.99999999999996 10.0 1.0
endloop
endfacet
facet normal 0.0 -0.70710678118655 -0.707106781186545
outer loop
vertex 169.0 103.0 6.26158343519178e-031
vertex 8.99999999999996 102.0 1.00000000000001
vertex 7.99999999999991 103.0 0.0
endloop
endfacet
facet normal 0.0 -0.70710678118655 -0.707106781186545
outer loop
vertex 8.99999999999996 102.0 1.00000000000001
vertex 169.0 103.0 6.26158343519178e-031
vertex 168.0 102.0 1.00000000000001
endloop
endfacet
facet normal -0.707106781186532 0.0 -0.707106781186563
outer loop
vertex 169.0 103.0 6.26158343519178e-031
vertex 168.0 10.0 1.00000000000001
vertex 168.0 102.0 1.00000000000001
endloop
endfacet
facet normal -0.707106781186532 0.0 -0.707106781186563
outer loop
vertex 168.0 10.0 1.00000000000001
vertex 169.0 103.0 6.26158343519178e-031
vertex 169.0 8.99999999999999 0.0
endloop
endfacet
facet normal 0.707106781186548 0.707106781186548 -0.0
outer loop
vertex 172.0 109.0 0.0
vertex 174.0 107.0 8.0
vertex 174.0 107.0 0.0
endloop
endfacet
facet normal 0.707106781186548 0.707106781186548 -0.0
outer loop
vertex 174.0 107.0 8.0
vertex 172.0 109.0 0.0
vertex 172.0 109.0 8.0
endloop
endfacet
facet normal -0.0 1.0 -0.0
outer loop
vertex 2.0 109.0 8.0
vertex 172.0 109.0 0.0
vertex 2.0 109.0 0.0
endloop
endfacet
facet normal -0.0 1.0 -0.0
outer loop
vertex 172.0 109.0 0.0
vertex 2.0 109.0 8.0
vertex 172.0 109.0 8.0
endloop
endfacet
facet normal -0.707106781186548 0.707106781186548 -0.0
outer loop
vertex 2.0 109.0 8.0
vertex 0.0 107.0 0.0
vertex 0.0 107.0 8.0
endloop
endfacet
facet normal -0.707106781186548 0.707106781186548 -0.0
outer loop
vertex 0.0 107.0 0.0
vertex 2.0 109.0 8.0
vertex 2.0 109.0 0.0
endloop
endfacet
facet normal -5.58511819187347e-033 -1.0 -1.50398212402555e-014
outer loop
vertex 167.0 105.0 11.0
vertex 3.99999999999999 105.0 8.0
vertex 170.0 105.0 8.0
endloop
endfacet
facet normal -5.58511819187347e-033 -1.0 -1.50398212402555e-014
outer loop
vertex 3.99999999999999 105.0 8.0
vertex 167.0 105.0 11.0
vertex 6.99999999999992 105.0 11.0
endloop
endfacet
facet normal -6.54040481847629e-032 -0.707106781186543 -0.707106781186553
outer loop
vertex 170.0 105.0 8.0
vertex 6.99999999999992 102.0 11.0
vertex 3.99999999999999 105.0 8.0
endloop
endfacet
facet normal -6.54040481847629e-032 -0.707106781186543 -0.707106781186553
outer loop
vertex 6.99999999999992 102.0 11.0
vertex 170.0 105.0 8.0
vertex 167.0 102.0 11.0
endloop
endfacet
facet normal 1.0 -9.9821822391076e-017 1.40998324127395e-015
outer loop
vertex 174.0 -5.99999999999944 -1.145611383535e-014
vertex 174.0 -2.93185165257815 4.48236190979495
vertex 174.0 -3.00000000000001 4.99999999999999
endloop
endfacet
facet normal 1.0 -9.9821822391076e-017 1.40998324127395e-015
outer loop
vertex 174.0 -2.93185165257815 4.48236190979495
vertex 174.0 -5.99999999999944 -1.145611383535e-014
vertex 174.0 -2.73205080756889 3.99999999999999
endloop
endfacet
facet normal 1.0 -9.9821822391076e-017 1.40998324127395e-015
outer loop
vertex 174.0 -2.73205080756889 3.99999999999999
vertex 174.0 -5.99999999999944 -1.145611383535e-014
vertex 174.0 -2.4142135623731 3.5857864376269
endloop
endfacet
facet normal 1.0 -9.9821822391076e-017 1.40998324127395e-015
outer loop
vertex 174.0 -2.4142135623731 3.5857864376269
vertex 174.0 -5.99999999999944 -1.145611383535e-014
vertex 174.0 -2.00000000000001 3.26794919243112
endloop
endfacet
facet normal 1.0 -9.9821822391076e-017 1.40998324127395e-015
outer loop
vertex 174.0 -2.00000000000001 3.26794919243112
vertex 174.0 -5.99999999999944 -1.145611383535e-014
vertex 174.0 -1.51763809020505 3.06814834742186
endloop
endfacet
facet normal 1.0 -9.9821822391076e-017 1.40998324127395e-015
outer loop
vertex 174.0 -1.51763809020505 3.06814834742186
vertex 174.0 -5.99999999999944 -1.145611383535e-014
vertex 174.0 -1.0 3.0
endloop
endfacet
facet normal 1.0 -9.9821822391076e-017 1.40998324127395e-015
outer loop
vertex 174.0 -1.0 3.0
vertex 174.0 -5.99999999999944 -1.145611383535e-014
vertex 174.0 107.0 0.0
endloop
endfacet
facet normal 1.0 -9.9821822391076e-017 1.40998324127395e-015
outer loop
vertex 174.0 -1.0 3.0
vertex 174.0 107.0 0.0
vertex 174.0 -0.482361909794963 3.06814834742186
endloop
endfacet
facet normal 1.0 -9.9821822391076e-017 1.40998324127395e-015
outer loop
vertex 174.0 -0.482361909794963 3.06814834742186
vertex 174.0 107.0 0.0
vertex 174.0 -5.11118924961806e-015 3.26794919243113
endloop
endfacet
facet normal 1.0 -9.9821822391076e-017 1.40998324127395e-015
outer loop
vertex 174.0 -5.11118924961806e-015 3.26794919243113
vertex 174.0 107.0 0.0
vertex 174.0 0.414213562373089 3.58578643762691
endloop
endfacet
facet normal 1.0 -9.9821822391076e-017 1.40998324127395e-015
outer loop
vertex 174.0 0.414213562373089 3.58578643762691
vertex 174.0 107.0 0.0
vertex 174.0 0.732050807568869 4.0
endloop
endfacet
facet normal 1.0 -9.9821822391076e-017 1.40998324127395e-015
outer loop
vertex 174.0 0.732050807568869 4.0
vertex 174.0 107.0 0.0
vertex 174.0 0.931851652578127 4.48236190979496
endloop
endfacet
facet normal 1.0 -9.9821822391076e-017 1.40998324127395e-015
outer loop
vertex 174.0 0.931851652578127 4.48236190979496
vertex 174.0 107.0 0.0
vertex 174.0 0.999999999999988 5.00000000000001
endloop
endfacet
facet normal 1.0 -9.9821822391076e-017 1.40998324127395e-015
outer loop
vertex 174.0 -6.00000000000002 8.00000000000009
vertex 174.0 -1.00000000000002 7.0
vertex 174.0 107.0 8.0
endloop
endfacet
facet normal 1.0 -9.9821822391076e-017 1.40998324127395e-015
outer loop
vertex 174.0 -1.00000000000002 7.0
vertex 174.0 -6.00000000000002 8.00000000000009
vertex 174.0 -1.51763809020506 6.93185165257813
endloop
endfacet
facet normal 1.0 -9.9821822391076e-017 1.40998324127395e-015
outer loop
vertex 174.0 -1.51763809020506 6.93185165257813
vertex 174.0 -6.00000000000002 8.00000000000009
vertex 174.0 -2.00000000000002 6.73205080756887
endloop
endfacet
facet normal 1.0 -9.9821822391076e-017 1.40998324127395e-015
outer loop
vertex 174.0 -2.00000000000002 6.73205080756887
vertex 174.0 -6.00000000000002 8.00000000000009
vertex 174.0 -2.41421356237311 6.41421356237309
endloop
endfacet
facet normal 1.0 -9.9821822391076e-017 1.40998324127395e-015
outer loop
vertex 174.0 -2.41421356237311 6.41421356237309
vertex 174.0 -6.00000000000002 8.00000000000009
vertex 174.0 -2.73205080756889 5.99999999999999
endloop
endfacet
facet normal 1.0 -9.9821822391076e-017 1.40998324127395e-015
outer loop
vertex 174.0 -2.73205080756889 5.99999999999999
vertex 174.0 -6.00000000000002 8.00000000000009
vertex 174.0 -5.99999999999944 -1.145611383535e-014
endloop
endfacet
facet normal 1.0 -9.9821822391076e-017 1.40998324127395e-015
outer loop
vertex 174.0 -2.73205080756889 5.99999999999999
vertex 174.0 -5.99999999999944 -1.145611383535e-014
vertex 174.0 -2.93185165257815 5.51763809020503
endloop
endfacet
facet normal 1.0 -9.9821822391076e-017 1.40998324127395e-015
outer loop
vertex 174.0 -2.93185165257815 5.51763809020503
vertex 174.0 -5.99999999999944 -1.145611383535e-014
vertex 174.0 -3.00000000000001 4.99999999999999
endloop
endfacet
facet normal 1.0 -9.9821822391076e-017 1.40998324127395e-015
outer loop
vertex 174.0 107.0 8.0
vertex 174.0 -1.00000000000002 7.0
vertex 174.0 -0.482361909794977 6.93185165257814
endloop
endfacet
facet normal 1.0 -9.9821822391076e-017 1.40998324127395e-015
outer loop
vertex 174.0 107.0 8.0
vertex 174.0 -0.482361909794977 6.93185165257814
vertex 174.0 -1.79772863262428e-014 6.73205080756888
endloop
endfacet
facet normal 1.0 -9.9821822391076e-017 1.40998324127395e-015
outer loop
vertex 174.0 107.0 8.0
vertex 174.0 -1.79772863262428e-014 6.73205080756888
vertex 174.0 0.414213562373078 6.4142135623731
endloop
endfacet
facet normal 1.0 -9.9821822391076e-017 1.40998324127395e-015
outer loop
vertex 174.0 107.0 8.0
vertex 174.0 0.414213562373078 6.4142135623731
vertex 174.0 0.732050807568862 6.0
endloop
endfacet
facet normal 1.0 -9.9821822391076e-017 1.40998324127395e-015
outer loop
vertex 174.0 107.0 8.0
vertex 174.0 0.732050807568862 6.0
vertex 174.0 0.931851652578122 5.51763809020505
endloop
endfacet
facet normal 1.0 -9.9821822391076e-017 1.40998324127395e-015
outer loop
vertex 174.0 107.0 8.0
vertex 174.0 0.931851652578122 5.51763809020505
vertex 174.0 0.999999999999988 5.00000000000001
endloop
endfacet
facet normal 1.0 -9.9821822391076e-017 1.40998324127395e-015
outer loop
vertex 174.0 107.0 8.0
vertex 174.0 0.999999999999988 5.00000000000001
vertex 174.0 107.0 0.0
endloop
endfacet
facet normal -5.21908620389242e-030 -7.87558206837701e-016 -1.0
outer loop
vertex 170.0 105.0 8.0
vertex 170.5 -6.00000000000002 8.00000000000009
vertex 170.0 -6.00000000000002 8.00000000000009
endloop
endfacet
facet normal -5.21908620389242e-030 -7.87558206837701e-016 -1.0
outer loop
vertex 170.5 -6.00000000000002 8.00000000000009
vertex 170.0 105.0 8.0
vertex 170.5 105.0 8.0
endloop
endfacet
facet normal 1.0 7.62153103391324e-017 -1.40998324127395e-015
outer loop
vertex 3.49999999999997 -6.0 2.0
vertex 3.49999999999997 -2.4142135623731 3.5857864376269
vertex 3.49999999999999 -6.0 8.00000000000001
endloop
endfacet
facet normal 1.0 7.62153103391324e-017 -1.40998324127395e-015
outer loop
vertex 3.49999999999997 -2.4142135623731 3.5857864376269
vertex 3.49999999999997 -6.0 2.0
vertex 3.49999999999997 -2.0 3.26794919243112
endloop
endfacet
facet normal 1.0 7.62153103391324e-017 -1.40998324127395e-015
outer loop
vertex 3.49999999999997 -2.0 3.26794919243112
vertex 3.49999999999997 -6.0 2.0
vertex 3.49999999999997 -1.51763809020504 3.06814834742186
endloop
endfacet
facet normal 1.0 7.62153103391324e-017 -1.40998324127395e-015
outer loop
vertex 3.49999999999997 -1.51763809020504 3.06814834742186
vertex 3.49999999999997 -6.0 2.0
vertex 3.49999999999997 -1.0 3.0
endloop
endfacet
facet normal 1.0 7.62153103391324e-017 -1.40998324127395e-015
outer loop
vertex 3.49999999999997 -1.0 3.0
vertex 3.49999999999997 -6.0 2.0
vertex 3.49999999999997 105.0 2.0
endloop
endfacet
facet normal 1.0 7.62153103391324e-017 -1.40998324127395e-015
outer loop
vertex 3.49999999999999 -6.0 8.00000000000001
vertex 3.49999999999997 -2.4142135623731 3.5857864376269
vertex 3.49999999999997 -2.73205080756888 4.0
endloop
endfacet
facet normal 1.0 7.62153103391324e-017 -1.40998324127395e-015
outer loop
vertex 3.49999999999999 -6.0 8.00000000000001
vertex 3.49999999999997 -2.73205080756888 4.0
vertex 3.49999999999997 -2.93185165257814 4.48236190979496
endloop
endfacet
facet normal 1.0 7.62153103391324e-017 -1.40998324127395e-015
outer loop
vertex 3.49999999999999 -6.0 8.00000000000001
vertex 3.49999999999997 -2.93185165257814 4.48236190979496
vertex 3.49999999999998 -3.0 5.0
endloop
endfacet
facet normal 1.0 7.62153103391324e-017 -1.40998324127395e-015
outer loop
vertex 3.49999999999997 -1.0 3.0
vertex 3.49999999999997 105.0 2.0
vertex 3.49999999999997 -0.48236190979496 3.06814834742186
endloop
endfacet
facet normal 1.0 7.62153103391324e-017 -1.40998324127395e-015
outer loop
vertex 3.49999999999997 -0.48236190979496 3.06814834742186
vertex 3.49999999999997 105.0 2.0
vertex 3.49999999999997 -1.76247905159244e-015 3.26794919243112
endloop
endfacet
facet normal 1.0 7.62153103391324e-017 -1.40998324127395e-015
outer loop
vertex 3.49999999999997 -1.76247905159244e-015 3.26794919243112
vertex 3.49999999999997 105.0 2.0
vertex 3.49999999999997 0.414213562373093 3.5857864376269
endloop
endfacet
facet normal 1.0 7.62153103391324e-017 -1.40998324127395e-015
outer loop
vertex 3.49999999999997 0.414213562373093 3.5857864376269
vertex 3.49999999999997 105.0 2.0
vertex 3.49999999999997 0.732050807568875 4.0
endloop
endfacet
facet normal 1.0 7.62153103391324e-017 -1.40998324127395e-015
outer loop
vertex 3.49999999999997 0.732050807568875 4.0
vertex 3.49999999999997 105.0 2.0
vertex 3.49999999999997 0.931851652578134 4.48236190979496
endloop
endfacet
facet normal 1.0 7.62153103391324e-017 -1.40998324127395e-015
outer loop
vertex 3.49999999999997 0.931851652578134 4.48236190979496
vertex 3.49999999999997 105.0 2.0
vertex 3.49999999999998 0.999999999999997 5.0
endloop
endfacet
facet normal 1.0 7.62153103391324e-017 -1.40998324127395e-015
outer loop
vertex 3.49999999999999 -6.0 8.00000000000001
vertex 3.49999999999998 -1.0 7.0
vertex 3.49999999999997 105.0 8.0
endloop
endfacet
facet normal 1.0 7.62153103391324e-017 -1.40998324127395e-015
outer loop
vertex 3.49999999999998 -1.0 7.0
vertex 3.49999999999999 -6.0 8.00000000000001
vertex 3.49999999999998 -1.51763809020504 6.93185165257813
endloop
endfacet
facet normal 1.0 7.62153103391324e-017 -1.40998324127395e-015
outer loop
vertex 3.49999999999998 -1.51763809020504 6.93185165257813
vertex 3.49999999999999 -6.0 8.00000000000001
vertex 3.49999999999998 -2.0 6.73205080756888
endloop
endfacet
facet normal 1.0 7.62153103391324e-017 -1.40998324127395e-015
outer loop
vertex 3.49999999999998 -2.0 6.73205080756888
vertex 3.49999999999999 -6.0 8.00000000000001
vertex 3.49999999999998 -2.4142135623731 6.41421356237309
endloop
endfacet
facet normal 1.0 7.62153103391324e-017 -1.40998324127395e-015
outer loop
vertex 3.49999999999998 -2.4142135623731 6.41421356237309
vertex 3.49999999999999 -6.0 8.00000000000001
vertex 3.49999999999998 -2.73205080756888 6.0
endloop
endfacet
facet normal 1.0 7.62153103391324e-017 -1.40998324127395e-015
outer loop
vertex 3.49999999999998 -2.73205080756888 6.0
vertex 3.49999999999999 -6.0 8.00000000000001
vertex 3.49999999999998 -2.93185165257814 5.51763809020504
endloop
endfacet
facet normal 1.0 7.62153103391324e-017 -1.40998324127395e-015
outer loop
vertex 3.49999999999998 -2.93185165257814 5.51763809020504
vertex 3.49999999999999 -6.0 8.00000000000001
vertex 3.49999999999998 -3.0 5.0
endloop
endfacet
facet normal 1.0 7.62153103391324e-017 -1.40998324127395e-015
outer loop
vertex 3.49999999999997 105.0 8.0
vertex 3.49999999999998 -1.0 7.0
vertex 3.49999999999998 -0.482361909794961 6.93185165257813
endloop
endfacet
facet normal 1.0 7.62153103391324e-017 -1.40998324127395e-015
outer loop
vertex 3.49999999999997 105.0 8.0
vertex 3.49999999999998 -0.482361909794961 6.93185165257813
vertex 3.49999999999998 -3.17246229286638e-015 6.73205080756888
endloop
endfacet
facet normal 1.0 7.62153103391324e-017 -1.40998324127395e-015
outer loop
vertex 3.49999999999997 105.0 8.0
vertex 3.49999999999998 -3.17246229286638e-015 6.73205080756888
vertex 3.49999999999998 0.414213562373092 6.41421356237309
endloop
endfacet
facet normal 1.0 7.62153103391324e-017 -1.40998324127395e-015
outer loop
vertex 3.49999999999997 105.0 8.0
vertex 3.49999999999998 0.414213562373092 6.41421356237309
vertex 3.49999999999998 0.732050807568874 6.0
endloop
endfacet
facet normal 1.0 7.62153103391324e-017 -1.40998324127395e-015
outer loop
vertex 3.49999999999997 105.0 8.0
vertex 3.49999999999998 0.732050807568874 6.0
vertex 3.49999999999998 0.931851652578134 5.51763809020504
endloop
endfacet
facet normal 1.0 7.62153103391324e-017 -1.40998324127395e-015
outer loop
vertex 3.49999999999997 105.0 8.0
vertex 3.49999999999998 0.931851652578134 5.51763809020504
vertex 3.49999999999998 0.999999999999997 5.0
endloop
endfacet
facet normal 1.0 7.62153103391324e-017 -1.40998324127395e-015
outer loop
vertex 3.49999999999997 105.0 8.0
vertex 3.49999999999998 0.999999999999997 5.0
vertex 3.49999999999997 105.0 2.0
endloop
endfacet
facet normal 1.0 -0.0 -0.0
outer loop
vertex 8.99999999999996 102.0 1.00000000000001
vertex 8.99999999999996 10.0 2.0
vertex 8.99999999999996 10.0 1.0
endloop
endfacet
facet normal 1.0 -0.0 -0.0
outer loop
vertex 8.99999999999996 10.0 2.0
vertex 8.99999999999996 102.0 1.00000000000001
vertex 8.99999999999996 102.0 2.00000000000001
endloop
endfacet
facet normal -0.0 1.0 -0.0
outer loop
vertex 76.9999999999999 3.0 2.0
vertex 96.9999999999999 3.0 7.0
vertex 96.9999999999999 3.0 2.0
endloop
endfacet
facet normal -0.0 1.0 -0.0
outer loop
vertex 96.9999999999999 3.0 7.0
vertex 76.9999999999999 3.0 2.0
vertex 76.9999999999999 3.0 7.0
endloop
endfacet
facet normal 1.0 -0.0 -0.0
outer loop
vertex 96.9999999999999 3.0 7.0
vertex 96.9999999999999 0.0 2.0
vertex 96.9999999999999 3.0 2.0
endloop
endfacet
facet normal 9.9900695347375e-019 -1.54458988803358e-017 1.0
outer loop
vertex 3.49999999999997 -6.0 2.0
vertex 8.99999999999996 10.0 2.0
vertex 3.49999999999997 105.0 2.0
endloop
endfacet
facet normal 9.9900695347375e-019 -1.54458988803358e-017 1.0
outer loop
vertex 8.99999999999996 10.0 2.0
vertex 3.49999999999997 -6.0 2.0
vertex 76.9999999999999 0.0 2.0
endloop
endfacet
facet normal 9.9900695347375e-019 -1.54458988803358e-017 1.0
outer loop
vertex 76.9999999999999 0.0 2.0
vertex 3.49999999999997 -6.0 2.0
vertex 170.5 -6.0 2.0
endloop
endfacet
facet normal 9.9900695347375e-019 -1.54458988803358e-017 1.0
outer loop
vertex 76.9999999999999 0.0 2.0
vertex 170.5 -6.0 2.0
vertex 96.9999999999999 0.0 2.0
endloop
endfacet
facet normal 9.9900695347375e-019 -1.54458988803358e-017 1.0
outer loop
vertex 96.9999999999999 0.0 2.0
vertex 170.5 -6.0 2.0
vertex 96.9999999999999 3.0 2.0
endloop
endfacet
facet normal 9.9900695347375e-019 -1.54458988803358e-017 1.0
outer loop
vertex 96.9999999999999 3.0 2.0
vertex 170.5 -6.0 2.0
vertex 168.0 10.0 2.00000000000001
endloop
endfacet
facet normal 9.9900695347375e-019 -1.54458988803358e-017 1.0
outer loop
vertex 168.0 10.0 2.00000000000001
vertex 170.5 -6.0 2.0
vertex 168.0 102.0 2.00000000000001
endloop
endfacet
facet normal 9.9900695347375e-019 -1.54458988803358e-017 1.0
outer loop
vertex 3.49999999999997 105.0 2.0
vertex 8.99999999999996 102.0 2.00000000000001
vertex 170.5 105.0 2.0
endloop
endfacet
facet normal 9.9900695347375e-019 -1.54458988803358e-017 1.0
outer loop
vertex 8.99999999999996 102.0 2.00000000000001
vertex 3.49999999999997 105.0 2.0
vertex 8.99999999999996 10.0 2.0
endloop
endfacet
facet normal 9.9900695347375e-019 -1.54458988803358e-017 1.0
outer loop
vertex 170.5 105.0 2.0
vertex 8.99999999999996 102.0 2.00000000000001
vertex 168.0 102.0 2.00000000000001
endloop
endfacet
facet normal 9.9900695347375e-019 -1.54458988803358e-017 1.0
outer loop
vertex 170.5 105.0 2.0
vertex 168.0 102.0 2.00000000000001
vertex 170.5 -6.0 2.0
endloop
endfacet
facet normal 9.9900695347375e-019 -1.54458988803358e-017 1.0
outer loop
vertex 8.99999999999996 10.0 2.0
vertex 76.9999999999999 3.0 2.0
vertex 168.0 10.0 2.00000000000001
endloop
endfacet
facet normal 9.9900695347375e-019 -1.54458988803358e-017 1.0
outer loop
vertex 76.9999999999999 3.0 2.0
vertex 8.99999999999996 10.0 2.0
vertex 76.9999999999999 0.0 2.0
endloop
endfacet
facet normal 9.9900695347375e-019 -1.54458988803358e-017 1.0
outer loop
vertex 168.0 10.0 2.00000000000001
vertex 76.9999999999999 3.0 2.0
vertex 96.9999999999999 3.0 2.0
endloop
endfacet
facet normal 2.87905187166071e-017 -0.857492925712544 0.514495755427527
outer loop
vertex 96.9999999999999 3.0 7.0
vertex 76.9999999999999 0.0 2.0
vertex 96.9999999999999 0.0 2.0
endloop
endfacet
facet normal 2.87905187166071e-017 -0.857492925712544 0.514495755427527
outer loop
vertex 76.9999999999999 0.0 2.0
vertex 96.9999999999999 3.0 7.0
vertex 76.9999999999999 3.0 7.0
endloop
endfacet
facet normal -1.0 0.0 0.0
outer loop
vertex 76.9999999999999 3.0 2.0
vertex 76.9999999999999 0.0 2.0
vertex 76.9999999999999 3.0 7.0
endloop
endfacet
facet normal -0.0 -9.39988827515967e-016 1.0
outer loop
vertex 167.0 102.0 11.0
vertex 6.99999999999992 105.0 11.0
vertex 6.99999999999992 102.0 11.0
endloop
endfacet
facet normal -0.0 -9.39988827515967e-016 1.0
outer loop
vertex 6.99999999999992 105.0 11.0
vertex 167.0 102.0 11.0
vertex 167.0 105.0 11.0
endloop
endfacet
facet normal 0.707106781186545 1.95168418587539e-015 -0.70710678118655
outer loop
vertex 6.99999999999992 102.0 11.0
vertex 4.00000000000001 -6.0 8.00000000000001
vertex 3.99999999999999 105.0 8.0
endloop
endfacet
facet normal 0.707106781186545 1.95168418587539e-015 -0.70710678118655
outer loop
vertex 4.00000000000001 -6.0 8.00000000000001
vertex 6.99999999999992 102.0 11.0
vertex 17.0000000000003 -5.99999999999995 20.9999999999998
endloop
endfacet
facet normal 0.707106781186545 1.95168418587539e-015 -0.70710678118655
outer loop
vertex 17.0000000000003 -5.99999999999995 20.9999999999998
vertex 6.99999999999992 102.0 11.0
vertex 13.4999999999998 102.0 17.4999999999999
endloop
endfacet
facet normal 0.707106781186545 1.95168418587539e-015 -0.70710678118655
outer loop
vertex 17.0000000000003 -5.99999999999995 20.9999999999998
vertex 13.4999999999998 102.0 17.4999999999999
vertex 16.9999999999996 102.0 20.9999999999998
endloop
endfacet
facet normal -1.0 -6.43195209755526e-017 1.21694706780836e-015
outer loop
vertex 1.70036824127043e-014 -6.0 8.00000000000001
vertex -2.39697151016571e-014 -2.93185165257814 5.51763809020504
vertex -2.46747067222941e-014 -3.0 5.0
endloop
endfacet
facet normal -1.0 -6.43195209755526e-017 1.21694706780836e-015
outer loop
vertex -2.39697151016571e-014 -2.93185165257814 5.51763809020504
vertex 1.70036824127043e-014 -6.0 8.00000000000001
vertex -2.32647234810202e-014 -2.73205080756888 6.0
endloop
endfacet
facet normal -1.0 -6.43195209755526e-017 1.21694706780836e-015
outer loop
vertex -2.32647234810202e-014 -2.73205080756888 6.0
vertex 1.70036824127043e-014 -6.0 8.00000000000001
vertex -2.25597318603832e-014 -2.4142135623731 6.4142135623731
endloop
endfacet
facet normal -1.0 -6.43195209755526e-017 1.21694706780836e-015
outer loop
vertex -2.25597318603832e-014 -2.4142135623731 6.4142135623731
vertex 1.70036824127043e-014 -6.0 8.00000000000001
vertex -2.25597318603832e-014 -2.0 6.73205080756888
endloop
endfacet
facet normal -1.0 -6.43195209755526e-017 1.21694706780836e-015
outer loop
vertex -2.25597318603832e-014 -2.0 6.73205080756888
vertex 1.70036824127043e-014 -6.0 8.00000000000001
vertex -2.18547402397462e-014 -1.51763809020504 6.93185165257814
endloop
endfacet
facet normal -1.0 -6.43195209755526e-017 1.21694706780836e-015
outer loop
vertex -2.18547402397462e-014 -1.51763809020504 6.93185165257814
vertex 1.70036824127043e-014 -6.0 8.00000000000001
vertex -2.18547402397462e-014 -1.0 7.0
endloop
endfacet
facet normal -1.0 -6.43195209755526e-017 1.21694706780836e-015
outer loop
vertex -2.18547402397462e-014 -1.0 7.0
vertex 1.70036824127043e-014 -6.0 8.00000000000001
vertex 0.0 107.0 8.0
endloop
endfacet
facet normal -1.0 -6.43195209755526e-017 1.21694706780836e-015
outer loop
vertex -2.18547402397462e-014 -1.0 7.0
vertex 0.0 107.0 8.0
vertex -2.18547402397462e-014 -0.482361909794961 6.93185165257814
endloop
endfacet
facet normal -1.0 -6.43195209755526e-017 1.21694706780836e-015
outer loop
vertex -2.18547402397462e-014 -0.482361909794961 6.93185165257814
vertex 0.0 107.0 8.0
vertex -2.25597318603832e-014 -3.17246229286639e-015 6.73205080756888
endloop
endfacet
facet normal -1.0 -6.43195209755526e-017 1.21694706780836e-015
outer loop
vertex -2.25597318603832e-014 -3.17246229286639e-015 6.73205080756888
vertex 0.0 107.0 8.0
vertex -2.25597318603832e-014 0.414213562373092 6.4142135623731
endloop
endfacet
facet normal -1.0 -6.43195209755526e-017 1.21694706780836e-015
outer loop
vertex -2.25597318603832e-014 0.414213562373092 6.4142135623731
vertex 0.0 107.0 8.0
vertex -2.32647234810202e-014 0.732050807568874 6.0
endloop
endfacet
facet normal -1.0 -6.43195209755526e-017 1.21694706780836e-015
outer loop
vertex -2.32647234810202e-014 0.732050807568874 6.0
vertex 0.0 107.0 8.0
vertex -2.39697151016571e-014 0.931851652578134 5.51763809020505
endloop
endfacet
facet normal -1.0 -6.43195209755526e-017 1.21694706780836e-015
outer loop
vertex -2.39697151016571e-014 0.931851652578134 5.51763809020505
vertex 0.0 107.0 8.0
vertex -2.46747067222941e-014 0.999999999999997 5.0
endloop
endfacet
facet normal -1.0 -6.43195209755526e-017 1.21694706780836e-015
outer loop
vertex -2.46747067222941e-015 -6.0 -1.76247905159243e-016
vertex -2.7494673204842e-014 -1.0 3.0
vertex 0.0 107.0 0.0
endloop
endfacet
facet normal -1.0 -6.43195209755526e-017 1.21694706780836e-015
outer loop
vertex -2.7494673204842e-014 -1.0 3.0
vertex -2.46747067222941e-015 -6.0 -1.76247905159243e-016
vertex -2.7494673204842e-014 -1.51763809020504 3.06814834742187
endloop
endfacet
facet normal -1.0 -6.43195209755526e-017 1.21694706780836e-015
outer loop
vertex -2.7494673204842e-014 -1.51763809020504 3.06814834742187
vertex -2.46747067222941e-015 -6.0 -1.76247905159243e-016
vertex -2.6789681584205e-014 -2.0 3.26794919243112
endloop
endfacet
facet normal -1.0 -6.43195209755526e-017 1.21694706780836e-015
outer loop
vertex -2.6789681584205e-014 -2.0 3.26794919243112
vertex -2.46747067222941e-015 -6.0 -1.76247905159243e-016
vertex -2.6789681584205e-014 -2.4142135623731 3.58578643762691
endloop
endfacet
facet normal -1.0 -6.43195209755526e-017 1.21694706780836e-015
outer loop
vertex -2.6789681584205e-014 -2.4142135623731 3.58578643762691
vertex -2.46747067222941e-015 -6.0 -1.76247905159243e-016
vertex 1.70036824127043e-014 -6.0 8.00000000000001
endloop
endfacet
facet normal -1.0 -6.43195209755526e-017 1.21694706780836e-015
outer loop
vertex -2.6789681584205e-014 -2.4142135623731 3.58578643762691
vertex 1.70036824127043e-014 -6.0 8.00000000000001
vertex -2.60846899635681e-014 -2.73205080756888 4.0
endloop
endfacet
facet normal -1.0 -6.43195209755526e-017 1.21694706780836e-015
outer loop
vertex -2.60846899635681e-014 -2.73205080756888 4.0
vertex 1.70036824127043e-014 -6.0 8.00000000000001
vertex -2.53796983429311e-014 -2.93185165257814 4.48236190979496
endloop
endfacet
facet normal -1.0 -6.43195209755526e-017 1.21694706780836e-015
outer loop
vertex -2.53796983429311e-014 -2.93185165257814 4.48236190979496
vertex 1.70036824127043e-014 -6.0 8.00000000000001
vertex -2.46747067222941e-014 -3.0 5.0
endloop
endfacet
facet normal -1.0 -6.43195209755526e-017 1.21694706780836e-015
outer loop
vertex 0.0 107.0 0.0
vertex -2.7494673204842e-014 -1.0 3.0
vertex -2.7494673204842e-014 -0.48236190979496 3.06814834742187
endloop
endfacet
facet normal -1.0 -6.43195209755526e-017 1.21694706780836e-015
outer loop
vertex 0.0 107.0 0.0
vertex -2.7494673204842e-014 -0.48236190979496 3.06814834742187
vertex -2.6789681584205e-014 -1.76247905159244e-015 3.26794919243113
endloop
endfacet
facet normal -1.0 -6.43195209755526e-017 1.21694706780836e-015
outer loop
vertex 0.0 107.0 0.0
vertex -2.6789681584205e-014 -1.76247905159244e-015 3.26794919243113
vertex -2.6789681584205e-014 0.414213562373093 3.58578643762691
endloop
endfacet
facet normal -1.0 -6.43195209755526e-017 1.21694706780836e-015
outer loop
vertex 0.0 107.0 0.0
vertex -2.6789681584205e-014 0.414213562373093 3.58578643762691
vertex -2.60846899635681e-014 0.732050807568875 4.0
endloop
endfacet
facet normal -1.0 -6.43195209755526e-017 1.21694706780836e-015
outer loop
vertex 0.0 107.0 0.0
vertex -2.60846899635681e-014 0.732050807568875 4.0
vertex -2.53796983429311e-014 0.931851652578134 4.48236190979496
endloop
endfacet
facet normal -1.0 -6.43195209755526e-017 1.21694706780836e-015
outer loop
vertex 0.0 107.0 0.0
vertex -2.53796983429311e-014 0.931851652578134 4.48236190979496
vertex -2.46747067222941e-014 0.999999999999997 5.0
endloop
endfacet
facet normal -1.0 -6.43195209755526e-017 1.21694706780836e-015
outer loop
vertex 0.0 107.0 0.0
vertex -2.46747067222941e-014 0.999999999999997 5.0
vertex 0.0 107.0 8.0
endloop
endfacet
facet normal 1.86494130861734e-014 5.28610131755646e-015 1.0
outer loop
vertex 13.5 -5.99999999999997 20.9999999999998
vertex 15.1970562748475 105.0 20.9999999999999
vertex 13.4999999999998 103.8 20.9999999999999
endloop
endfacet
facet normal 1.86494130861734e-014 5.28610131755646e-015 1.0
outer loop
vertex 15.1970562748475 105.0 20.9999999999999
vertex 13.5 -5.99999999999997 20.9999999999998
vertex 17.0000000000003 -5.99999999999995 20.9999999999998
endloop
endfacet
facet normal 1.86494130861734e-014 5.28610131755646e-015 1.0
outer loop
vertex 15.1970562748475 105.0 20.9999999999999
vertex 17.0000000000003 -5.99999999999995 20.9999999999998
vertex 16.9999999999996 102.0 20.9999999999998
endloop
endfacet
facet normal 1.86494130861734e-014 5.28610131755646e-015 1.0
outer loop
vertex 160.5 -5.99999999999987 20.9999999999989
vertex 156.999999999997 102.0 20.9999999999968
vertex 156.999999999996 -5.99999999999982 20.9999999999969
endloop
endfacet
facet normal 1.86494130861734e-014 5.28610131755646e-015 1.0
outer loop
vertex 156.999999999997 102.0 20.9999999999968
vertex 160.5 -5.99999999999987 20.9999999999989
vertex 158.802943725151 105.0 20.9999999999967
endloop
endfacet
facet normal 1.86494130861734e-014 5.28610131755646e-015 1.0
outer loop
vertex 158.802943725151 105.0 20.9999999999967
vertex 160.5 -5.99999999999987 20.9999999999989
vertex 160.499999999999 103.8 20.9999999999967
endloop
endfacet
facet normal 1.86494130861734e-014 5.28610131755646e-015 1.0
outer loop
vertex 16.9999999999996 102.0 20.9999999999998
vertex 158.802943725151 105.0 20.9999999999967
vertex 15.1970562748475 105.0 20.9999999999999
endloop
endfacet
facet normal 1.86494130861734e-014 5.28610131755646e-015 1.0
outer loop
vertex 158.802943725151 105.0 20.9999999999967
vertex 16.9999999999996 102.0 20.9999999999998
vertex 156.999999999997 102.0 20.9999999999968
endloop
endfacet
facet normal 5.31838190664722e-016 -1.0 1.86172544478909e-014
outer loop
vertex 156.999999999997 102.0 20.9999999999968
vertex 6.99999999999992 102.0 11.0
vertex 167.0 102.0 11.0
endloop
endfacet
facet normal 5.31838190664722e-016 -1.0 1.86172544478909e-014
outer loop
vertex 6.99999999999992 102.0 11.0
vertex 156.999999999997 102.0 20.9999999999968
vertex 13.4999999999998 102.0 17.4999999999999
endloop
endfacet
facet normal 5.31838190664722e-016 -1.0 1.86172544478909e-014
outer loop
vertex 13.4999999999998 102.0 17.4999999999999
vertex 156.999999999997 102.0 20.9999999999968
vertex 16.9999999999996 102.0 20.9999999999998
endloop
endfacet
facet normal 6.46408319537442e-016 -1.0 -1.06762078073919e-015
outer loop
vertex 174.0 -5.99999999999944 -1.145611383535e-014
vertex 170.5 -6.0 2.0
vertex -2.46747067222941e-015 -6.0 -1.76247905159243e-016
endloop
endfacet
facet normal 6.46408319537442e-016 -1.0 -1.06762078073919e-015
outer loop
vertex 170.5 -6.0 2.0
vertex 174.0 -5.99999999999944 -1.145611383535e-014
vertex 174.0 -6.00000000000002 8.00000000000009
endloop
endfacet
facet normal 6.46408319537442e-016 -1.0 -1.06762078073919e-015
outer loop
vertex 170.5 -6.0 2.0
vertex 174.0 -6.00000000000002 8.00000000000009
vertex 170.5 -6.00000000000002 8.00000000000009
endloop
endfacet
facet normal 6.46408319537442e-016 -1.0 -1.06762078073919e-015
outer loop
vertex 170.5 -6.00000000000002 8.00000000000009
vertex 174.0 -6.00000000000002 8.00000000000009
vertex 160.5 -5.99999999999987 20.9999999999989
endloop
endfacet
facet normal 6.46408319537442e-016 -1.0 -1.06762078073919e-015
outer loop
vertex 170.5 -6.00000000000002 8.00000000000009
vertex 160.5 -5.99999999999987 20.9999999999989
vertex 170.0 -6.00000000000002 8.00000000000009
endloop
endfacet
facet normal 6.46408319537442e-016 -1.0 -1.06762078073919e-015
outer loop
vertex 170.0 -6.00000000000002 8.00000000000009
vertex 160.5 -5.99999999999987 20.9999999999989
vertex 156.999999999996 -5.99999999999982 20.9999999999969
endloop
endfacet
facet normal 6.46408319537442e-016 -1.0 -1.06762078073919e-015
outer loop
vertex 17.0000000000003 -5.99999999999995 20.9999999999998
vertex 3.49999999999999 -6.0 8.00000000000001
vertex 4.00000000000001 -6.0 8.00000000000001
endloop
endfacet
facet normal 6.46408319537442e-016 -1.0 -1.06762078073919e-015
outer loop
vertex 3.49999999999999 -6.0 8.00000000000001
vertex 17.0000000000003 -5.99999999999995 20.9999999999998
vertex 1.70036824127043e-014 -6.0 8.00000000000001
endloop
endfacet
facet normal 6.46408319537442e-016 -1.0 -1.06762078073919e-015
outer loop
vertex 1.70036824127043e-014 -6.0 8.00000000000001
vertex 17.0000000000003 -5.99999999999995 20.9999999999998
vertex 13.5 -5.99999999999997 20.9999999999998
endloop
endfacet
facet normal 6.46408319537442e-016 -1.0 -1.06762078073919e-015
outer loop
vertex -2.46747067222941e-015 -6.0 -1.76247905159243e-016
vertex 3.49999999999997 -6.0 2.0
vertex 1.70036824127043e-014 -6.0 8.00000000000001
endloop
endfacet
facet normal 6.46408319537442e-016 -1.0 -1.06762078073919e-015
outer loop
vertex 3.49999999999997 -6.0 2.0
vertex -2.46747067222941e-015 -6.0 -1.76247905159243e-016
vertex 170.5 -6.0 2.0
endloop
endfacet
facet normal 6.46408319537442e-016 -1.0 -1.06762078073919e-015
outer loop
vertex 1.70036824127043e-014 -6.0 8.00000000000001
vertex 3.49999999999997 -6.0 2.0
vertex 3.49999999999999 -6.0 8.00000000000001
endloop
endfacet
facet normal -0.707106781186359 3.15294236832713e-015 -0.707106781186736
outer loop
vertex 156.999999999997 102.0 20.9999999999968
vertex 170.0 -6.00000000000002 8.00000000000009
vertex 156.999999999996 -5.99999999999982 20.9999999999969
endloop
endfacet
facet normal -0.707106781186359 3.15294236832713e-015 -0.707106781186736
outer loop
vertex 170.0 -6.00000000000002 8.00000000000009
vertex 156.999999999997 102.0 20.9999999999968
vertex 167.0 102.0 11.0
endloop
endfacet
facet normal -0.707106781186359 3.15294236832713e-015 -0.707106781186736
outer loop
vertex 170.0 -6.00000000000002 8.00000000000009
vertex 167.0 102.0 11.0
vertex 170.0 105.0 8.0
endloop
endfacet
facet normal -1.65835530608118e-017 3.31436927087499e-017 -1.0
outer loop
vertex 172.0 109.0 0.0
vertex 7.99999999999991 103.0 0.0
vertex 2.0 109.0 0.0
endloop
endfacet
facet normal -1.65835530608118e-017 3.31436927087499e-017 -1.0
outer loop
vertex 7.99999999999991 103.0 0.0
vertex 172.0 109.0 0.0
vertex 169.0 103.0 6.26158343519178e-031
endloop
endfacet
facet normal -1.65835530608118e-017 3.31436927087499e-017 -1.0
outer loop
vertex 169.0 103.0 6.26158343519178e-031
vertex 172.0 109.0 0.0
vertex 169.0 8.99999999999999 0.0
endloop
endfacet
facet normal -1.65835530608118e-017 3.31436927087499e-017 -1.0
outer loop
vertex -2.46747067222941e-015 -6.0 -1.76247905159243e-016
vertex 7.99999999999992 9.0 0.0
vertex 174.0 -5.99999999999944 -1.145611383535e-014
endloop
endfacet
facet normal -1.65835530608118e-017 3.31436927087499e-017 -1.0
outer loop
vertex 7.99999999999992 9.0 0.0
vertex -2.46747067222941e-015 -6.0 -1.76247905159243e-016
vertex 0.0 107.0 0.0
endloop
endfacet
facet normal -1.65835530608118e-017 3.31436927087499e-017 -1.0
outer loop
vertex 7.99999999999992 9.0 0.0
vertex 0.0 107.0 0.0
vertex 2.0 109.0 0.0
endloop
endfacet
facet normal -1.65835530608118e-017 3.31436927087499e-017 -1.0
outer loop
vertex 7.99999999999992 9.0 0.0
vertex 2.0 109.0 0.0
vertex 7.99999999999991 103.0 0.0
endloop
endfacet
facet normal -1.65835530608118e-017 3.31436927087499e-017 -1.0
outer loop
vertex 174.0 -5.99999999999944 -1.145611383535e-014
vertex 7.99999999999992 9.0 0.0
vertex 169.0 8.99999999999999 0.0
endloop
endfacet
facet normal -1.65835530608118e-017 3.31436927087499e-017 -1.0
outer loop
vertex 174.0 -5.99999999999944 -1.145611383535e-014
vertex 169.0 8.99999999999999 0.0
vertex 172.0 109.0 0.0
endloop
endfacet
facet normal -1.65835530608118e-017 3.31436927087499e-017 -1.0
outer loop
vertex 174.0 -5.99999999999944 -1.145611383535e-014
vertex 172.0 109.0 0.0
vertex 174.0 107.0 0.0
endloop
endfacet
facet normal 5.99997899212041e-031 -6.35127586159437e-017 -1.0
outer loop
vertex 3.99999999999999 105.0 8.0
vertex 3.49999999999999 -6.0 8.00000000000001
vertex 3.49999999999997 105.0 8.0
endloop
endfacet
facet normal 5.99997899212041e-031 -6.35127586159437e-017 -1.0
outer loop
vertex 3.49999999999999 -6.0 8.00000000000001
vertex 3.99999999999999 105.0 8.0
vertex 4.00000000000001 -6.0 8.00000000000001
endloop
endfacet
facet normal -1.0 1.01620413785509e-016 -1.87997765503193e-015
outer loop
vertex 170.5 -6.00000000000002 8.00000000000009
vertex 170.5 -2.41421356237311 6.41421356237309
vertex 170.5 -6.0 2.0
endloop
endfacet
facet normal -1.0 1.01620413785509e-016 -1.87997765503193e-015
outer loop
vertex 170.5 -2.41421356237311 6.41421356237309
vertex 170.5 -6.00000000000002 8.00000000000009
vertex 170.5 -2.00000000000002 6.73205080756887
endloop
endfacet
facet normal -1.0 1.01620413785509e-016 -1.87997765503193e-015
outer loop
vertex 170.5 -2.00000000000002 6.73205080756887
vertex 170.5 -6.00000000000002 8.00000000000009
vertex 170.5 -1.51763809020506 6.93185165257813
endloop
endfacet
facet normal -1.0 1.01620413785509e-016 -1.87997765503193e-015
outer loop
vertex 170.5 -1.51763809020506 6.93185165257813
vertex 170.5 -6.00000000000002 8.00000000000009
vertex 170.5 -1.00000000000002 7.0
endloop
endfacet
facet normal -1.0 1.01620413785509e-016 -1.87997765503193e-015
outer loop
vertex 170.5 -1.00000000000002 7.0
vertex 170.5 -6.00000000000002 8.00000000000009
vertex 170.5 105.0 8.0
endloop
endfacet
facet normal -1.0 1.01620413785509e-016 -1.87997765503193e-015
outer loop
vertex 170.5 -6.0 2.0
vertex 170.5 -2.41421356237311 6.41421356237309
vertex 170.5 -2.73205080756889 5.99999999999999
endloop
endfacet
facet normal -1.0 1.01620413785509e-016 -1.87997765503193e-015
outer loop
vertex 170.5 -6.0 2.0
vertex 170.5 -2.73205080756889 5.99999999999999
vertex 170.5 -2.93185165257815 5.51763809020503
endloop
endfacet
facet normal -1.0 1.01620413785509e-016 -1.87997765503193e-015
outer loop
vertex 170.5 -6.0 2.0
vertex 170.5 -2.93185165257815 5.51763809020503
vertex 170.5 -3.00000000000001 4.99999999999999
endloop
endfacet
facet normal -1.0 1.01620413785509e-016 -1.87997765503193e-015
outer loop
vertex 170.5 -1.00000000000002 7.0
vertex 170.5 105.0 8.0
vertex 170.5 -0.482361909794977 6.93185165257814
endloop
endfacet
facet normal -1.0 1.01620413785509e-016 -1.87997765503193e-015
outer loop
vertex 170.5 -0.482361909794977 6.93185165257814
vertex 170.5 105.0 8.0
vertex 170.5 -1.79772863262428e-014 6.73205080756888
endloop
endfacet
facet normal -1.0 1.01620413785509e-016 -1.87997765503193e-015
outer loop
vertex 170.5 -1.79772863262428e-014 6.73205080756888
vertex 170.5 105.0 8.0
vertex 170.5 0.414213562373078 6.4142135623731
endloop
endfacet
facet normal -1.0 1.01620413785509e-016 -1.87997765503193e-015
outer loop
vertex 170.5 0.414213562373078 6.4142135623731
vertex 170.5 105.0 8.0
vertex 170.5 0.732050807568862 6.0
endloop
endfacet
facet normal -1.0 1.01620413785509e-016 -1.87997765503193e-015
outer loop
vertex 170.5 0.732050807568862 6.0
vertex 170.5 105.0 8.0
vertex 170.5 0.931851652578122 5.51763809020505
endloop
endfacet
facet normal -1.0 1.01620413785509e-016 -1.87997765503193e-015
outer loop
vertex 170.5 0.931851652578122 5.51763809020505
vertex 170.5 105.0 8.0
vertex 170.5 0.999999999999988 5.00000000000001
endloop
endfacet
facet normal -1.0 1.01620413785509e-016 -1.87997765503193e-015
outer loop
vertex 170.5 -6.0 2.0
vertex 170.5 -1.0 3.0
vertex 170.5 105.0 2.0
endloop
endfacet
facet normal -1.0 1.01620413785509e-016 -1.87997765503193e-015
outer loop
vertex 170.5 -1.0 3.0
vertex 170.5 -6.0 2.0
vertex 170.5 -1.51763809020505 3.06814834742186
endloop
endfacet
facet normal -1.0 1.01620413785509e-016 -1.87997765503193e-015
outer loop
vertex 170.5 -1.51763809020505 3.06814834742186
vertex 170.5 -6.0 2.0
vertex 170.5 -2.00000000000001 3.26794919243112
endloop
endfacet
facet normal -1.0 1.01620413785509e-016 -1.87997765503193e-015
outer loop
vertex 170.5 -2.00000000000001 3.26794919243112
vertex 170.5 -6.0 2.0
vertex 170.5 -2.4142135623731 3.5857864376269
endloop
endfacet
facet normal -1.0 1.01620413785509e-016 -1.87997765503193e-015
outer loop
vertex 170.5 -2.4142135623731 3.5857864376269
vertex 170.5 -6.0 2.0
vertex 170.5 -2.73205080756889 3.99999999999999
endloop
endfacet
facet normal -1.0 1.01620413785509e-016 -1.87997765503193e-015
outer loop
vertex 170.5 -2.73205080756889 3.99999999999999
vertex 170.5 -6.0 2.0
vertex 170.5 -2.93185165257815 4.48236190979495
endloop
endfacet
facet normal -1.0 1.01620413785509e-016 -1.87997765503193e-015
outer loop
vertex 170.5 -2.93185165257815 4.48236190979495
vertex 170.5 -6.0 2.0
vertex 170.5 -3.00000000000001 4.99999999999999
endloop
endfacet
facet normal -1.0 1.01620413785509e-016 -1.87997765503193e-015
outer loop
vertex 170.5 105.0 2.0
vertex 170.5 -1.0 3.0
vertex 170.5 -0.482361909794963 3.06814834742186
endloop
endfacet
facet normal -1.0 1.01620413785509e-016 -1.87997765503193e-015
outer loop
vertex 170.5 105.0 2.0
vertex 170.5 -0.482361909794963 3.06814834742186
vertex 170.5 -5.11118924961806e-015 3.26794919243113
endloop
endfacet
facet normal -1.0 1.01620413785509e-016 -1.87997765503193e-015
outer loop
vertex 170.5 105.0 2.0
vertex 170.5 -5.11118924961806e-015 3.26794919243113
vertex 170.5 0.414213562373089 3.58578643762691
endloop
endfacet
facet normal -1.0 1.01620413785509e-016 -1.87997765503193e-015
outer loop
vertex 170.5 105.0 2.0
vertex 170.5 0.414213562373089 3.58578643762691
vertex 170.5 0.732050807568869 4.0
endloop
endfacet
facet normal -1.0 1.01620413785509e-016 -1.87997765503193e-015
outer loop
vertex 170.5 105.0 2.0
vertex 170.5 0.732050807568869 4.0
vertex 170.5 0.931851652578127 4.48236190979496
endloop
endfacet
facet normal -1.0 1.01620413785509e-016 -1.87997765503193e-015
outer loop
vertex 170.5 105.0 2.0
vertex 170.5 0.931851652578127 4.48236190979496
vertex 170.5 0.999999999999988 5.00000000000001
endloop
endfacet
facet normal -1.0 1.01620413785509e-016 -1.87997765503193e-015
outer loop
vertex 170.5 105.0 2.0
vertex 170.5 0.999999999999988 5.00000000000001
vertex 170.5 105.0 8.0
endloop
endfacet
facet normal 2.39999232388393e-015 0.955779008721941 0.294085848837553
outer loop
vertex 13.4999999999998 105.514374187547 19.3282838904711
vertex 172.0 109.0 8.0
vertex 2.0 109.0 8.0
endloop
endfacet
facet normal 2.39999232388393e-015 0.955779008721941 0.294085848837553
outer loop
vertex 172.0 109.0 8.0
vertex 13.4999999999998 105.514374187547 19.3282838904711
vertex 158.802943725151 105.0 20.9999999999967
endloop
endfacet
facet normal 2.39999232388393e-015 0.955779008721941 0.294085848837553
outer loop
vertex 158.802943725151 105.0 20.9999999999967
vertex 13.4999999999998 105.514374187547 19.3282838904711
vertex 15.1970562748475 105.0 20.9999999999999
endloop
endfacet
facet normal -0.442661109384154 0.626017344426197 0.641991765302611
outer loop
vertex 13.4999999999998 103.8 20.9999999999999
vertex 13.4999999999998 105.514374187547 19.3282838904711
vertex 2.0 109.0 8.0
endloop
endfacet
facet normal -0.442661109384154 0.626017344426197 0.641991765302611
outer loop
vertex 13.4999999999998 105.514374187547 19.3282838904711
vertex 13.4999999999998 103.8 20.9999999999999
vertex 15.1970562748475 105.0 20.9999999999999
endloop
endfacet
facet normal -0.523406952549925 0.523406952549925 0.672376623660283
outer loop
vertex 13.4999999999998 103.8 20.9999999999999
vertex 2.0 109.0 8.0
vertex 0.0 107.0 8.0
endloop
endfacet
facet normal 1.10805177068457e-031 -1.0 -1.69311088017291e-016
outer loop
vertex 3.49999999999998 0.999999999999997 5.0
vertex -2.53796983429311e-014 0.931851652578134 4.48236190979496
vertex 3.49999999999997 0.931851652578134 4.48236190979496
endloop
endfacet
facet normal 3.60123131490078e-016 -0.965925826289069 0.25881904510252
outer loop
vertex -2.53796983429311e-014 0.931851652578134 4.48236190979496
vertex 3.49999999999998 0.999999999999997 5.0
vertex -2.46747067222941e-014 0.999999999999997 5.0
endloop
endfacet
facet normal 3.60123131490078e-016 -0.965925826289069 0.25881904510252
outer loop
vertex 3.49999999999997 0.931851652578134 4.48236190979496
vertex -2.60846899635681e-014 0.732050807568875 4.0
vertex 3.49999999999997 0.732050807568875 4.0
endloop
endfacet
facet normal 6.95704466700721e-016 -0.866025403784439 0.499999999999999
outer loop
vertex -2.60846899635681e-014 0.732050807568875 4.0
vertex 3.49999999999997 0.931851652578134 4.48236190979496
vertex -2.53796983429311e-014 0.931851652578134 4.48236190979496
endloop
endfacet
facet normal 6.95704466700721e-016 -0.866025403784439 0.5
outer loop
vertex 3.49999999999997 0.732050807568875 4.0
vertex -2.6789681584205e-014 0.414213562373093 3.58578643762691
vertex 3.49999999999997 0.414213562373093 3.5857864376269
endloop
endfacet
facet normal 9.83874692211701e-016 -0.707106781186548 0.707106781186547
outer loop
vertex -2.6789681584205e-014 0.414213562373093 3.58578643762691
vertex 3.49999999999997 0.732050807568875 4.0
vertex -2.60846899635681e-014 0.732050807568875 4.0
endloop
endfacet
facet normal 1.20499548337826e-015 -0.5 0.866025403784438
outer loop
vertex 3.49999999999997 -1.76247905159244e-015 3.26794919243112
vertex -2.6789681584205e-014 0.414213562373093 3.58578643762691
vertex -2.6789681584205e-014 -1.76247905159244e-015 3.26794919243113
endloop
endfacet
facet normal 9.83874692211701e-016 -0.707106781186548 0.707106781186547
outer loop
vertex -2.6789681584205e-014 0.414213562373093 3.58578643762691
vertex 3.49999999999997 -1.76247905159244e-015 3.26794919243112
vertex 3.49999999999997 0.414213562373093 3.5857864376269
endloop
endfacet
facet normal -6.95704466700722e-016 -0.866025403784438 -0.500000000000001
outer loop
vertex 3.49999999999998 0.732050807568874 6.0
vertex -2.39697151016571e-014 0.931851652578134 5.51763809020505
vertex 3.49999999999998 0.931851652578134 5.51763809020504
endloop
endfacet
facet normal -3.60123131490078e-016 -0.965925826289068 -0.258819045102521
outer loop
vertex -2.39697151016571e-014 0.931851652578134 5.51763809020505
vertex 3.49999999999998 0.732050807568874 6.0
vertex -2.32647234810202e-014 0.732050807568874 6.0
endloop
endfacet
facet normal -3.60123131490078e-016 -0.965925826289068 -0.258819045102521
outer loop
vertex 3.49999999999998 0.931851652578134 5.51763809020504
vertex -2.46747067222941e-014 0.999999999999997 5.0
vertex 3.49999999999998 0.999999999999997 5.0
endloop
endfacet
facet normal 1.10805177068457e-031 -1.0 -1.69311088017291e-016
outer loop
vertex -2.46747067222941e-014 0.999999999999997 5.0
vertex 3.49999999999998 0.931851652578134 5.51763809020504
vertex -2.39697151016571e-014 0.931851652578134 5.51763809020505
endloop
endfacet
facet normal -9.83874692211702e-016 -0.707106781186547 -0.707106781186548
outer loop
vertex 3.49999999999998 0.414213562373092 6.41421356237309
vertex -2.32647234810202e-014 0.732050807568874 6.0
vertex 3.49999999999998 0.732050807568874 6.0
endloop
endfacet
facet normal -6.95704466700722e-016 -0.866025403784438 -0.5
outer loop
vertex -2.32647234810202e-014 0.732050807568874 6.0
vertex 3.49999999999998 0.414213562373092 6.41421356237309
vertex -2.25597318603832e-014 0.414213562373092 6.4142135623731
endloop
endfacet
facet normal -9.83874692211702e-016 -0.707106781186547 -0.707106781186548
outer loop
vertex 3.49999999999998 0.414213562373092 6.41421356237309
vertex -2.25597318603832e-014 -3.17246229286639e-015 6.73205080756888
vertex -2.25597318603832e-014 0.414213562373092 6.4142135623731
endloop
endfacet
facet normal -1.20499548337826e-015 -0.500000000000001 -0.866025403784438
outer loop
vertex -2.25597318603832e-014 -3.17246229286639e-015 6.73205080756888
vertex 3.49999999999998 0.414213562373092 6.41421356237309
vertex 3.49999999999998 -3.17246229286638e-015 6.73205080756888
endloop
endfacet
facet normal -1.20499548337826e-015 -0.500000000000001 -0.866025403784438
outer loop
vertex 3.49999999999998 -3.17246229286638e-015 6.73205080756888
vertex -2.18547402397462e-014 -0.482361909794961 6.93185165257814
vertex -2.25597318603832e-014 -3.17246229286639e-015 6.73205080756888
endloop
endfacet
facet normal -1.34399782370178e-015 -0.258819045102522 -0.965925826289068
outer loop
vertex -2.18547402397462e-014 -0.482361909794961 6.93185165257814
vertex 3.49999999999998 -3.17246229286638e-015 6.73205080756888
vertex 3.49999999999998 -0.482361909794961 6.93185165257813
endloop
endfacet
facet normal -1.34399782370178e-015 -0.258819045102522 -0.965925826289068
outer loop
vertex 3.49999999999998 -0.482361909794961 6.93185165257813
vertex -2.18547402397462e-014 -1.0 7.0
vertex -2.18547402397462e-014 -0.482361909794961 6.93185165257814
endloop
endfacet
facet normal -1.39140893340144e-015 -5.34666593738814e-017 -1.0
outer loop
vertex -2.18547402397462e-014 -1.0 7.0
vertex 3.49999999999998 -0.482361909794961 6.93185165257813
vertex 3.49999999999998 -1.0 7.0
endloop
endfacet
facet normal -1.10805177068457e-031 1.0 1.69311088017291e-016
outer loop
vertex -2.46747067222941e-014 -3.0 5.0
vertex 3.49999999999998 -2.93185165257814 5.51763809020504
vertex 3.49999999999998 -3.0 5.0
endloop
endfacet
facet normal -3.60123131490078e-016 0.965925826289068 -0.258819045102521
outer loop
vertex 3.49999999999998 -2.93185165257814 5.51763809020504
vertex -2.46747067222941e-014 -3.0 5.0
vertex -2.39697151016571e-014 -2.93185165257814 5.51763809020504
endloop
endfacet
facet normal 3.60123131490079e-016 0.965925826289068 0.258819045102521
outer loop
vertex -2.53796983429311e-014 -2.93185165257814 4.48236190979496
vertex 3.49999999999998 -3.0 5.0
vertex 3.49999999999997 -2.93185165257814 4.48236190979496
endloop
endfacet
facet normal -1.10805177068457e-031 1.0 1.69311088017291e-016
outer loop
vertex 3.49999999999998 -3.0 5.0
vertex -2.53796983429311e-014 -2.93185165257814 4.48236190979496
vertex -2.46747067222941e-014 -3.0 5.0
endloop
endfacet
facet normal 6.95704466700722e-016 0.866025403784438 0.5
outer loop
vertex -2.60846899635681e-014 -2.73205080756888 4.0
vertex 3.49999999999997 -2.93185165257814 4.48236190979496
vertex 3.49999999999997 -2.73205080756888 4.0
endloop
endfacet
facet normal 3.60123131490079e-016 0.965925826289068 0.258819045102521
outer loop
vertex 3.49999999999997 -2.93185165257814 4.48236190979496
vertex -2.60846899635681e-014 -2.73205080756888 4.0
vertex -2.53796983429311e-014 -2.93185165257814 4.48236190979496
endloop
endfacet
facet normal 9.83874692211701e-016 0.707106781186547 0.707106781186548
outer loop
vertex -2.6789681584205e-014 -2.4142135623731 3.58578643762691
vertex 3.49999999999997 -2.73205080756888 4.0
vertex 3.49999999999997 -2.4142135623731 3.5857864376269
endloop
endfacet
facet normal 6.95704466700722e-016 0.866025403784438 0.5
outer loop
vertex 3.49999999999997 -2.73205080756888 4.0
vertex -2.6789681584205e-014 -2.4142135623731 3.58578643762691
vertex -2.60846899635681e-014 -2.73205080756888 4.0
endloop
endfacet
facet normal 9.83874692211701e-016 0.707106781186547 0.707106781186548
outer loop
vertex 3.49999999999997 -2.4142135623731 3.5857864376269
vertex -2.6789681584205e-014 -2.0 3.26794919243112
vertex -2.6789681584205e-014 -2.4142135623731 3.58578643762691
endloop
endfacet
facet normal 1.20499548337826e-015 0.5 0.866025403784439
outer loop
vertex -2.6789681584205e-014 -2.0 3.26794919243112
vertex 3.49999999999997 -2.4142135623731 3.5857864376269
vertex 3.49999999999997 -2.0 3.26794919243112
endloop
endfacet
facet normal 1.20499548337826e-015 0.5 0.866025403784439
outer loop
vertex -2.6789681584205e-014 -2.0 3.26794919243112
vertex 3.49999999999997 -1.51763809020504 3.06814834742186
vertex -2.7494673204842e-014 -1.51763809020504 3.06814834742187
endloop
endfacet
facet normal 1.34399782370178e-015 0.25881904510252 0.965925826289068
outer loop
vertex 3.49999999999997 -1.51763809020504 3.06814834742186
vertex -2.6789681584205e-014 -2.0 3.26794919243112
vertex 3.49999999999997 -2.0 3.26794919243112
endloop
endfacet
facet normal 1.34399782370178e-015 0.25881904510252 0.965925826289068
outer loop
vertex 3.49999999999997 -1.51763809020504 3.06814834742186
vertex -2.7494673204842e-014 -1.0 3.0
vertex -2.7494673204842e-014 -1.51763809020504 3.06814834742187
endloop
endfacet
facet normal 1.39140893340144e-015 -4.63377714573639e-016 1.0
outer loop
vertex -2.7494673204842e-014 -1.0 3.0
vertex 3.49999999999997 -1.51763809020504 3.06814834742186
vertex 3.49999999999997 -1.0 3.0
endloop
endfacet
facet normal 1.39140893340144e-015 -4.63377714573639e-016 1.0
outer loop
vertex 3.49999999999997 -1.0 3.0
vertex -2.7494673204842e-014 -0.48236190979496 3.06814834742187
vertex -2.7494673204842e-014 -1.0 3.0
endloop
endfacet
facet normal 1.34399782370178e-015 -0.258819045102521 0.965925826289068
outer loop
vertex -2.7494673204842e-014 -0.48236190979496 3.06814834742187
vertex 3.49999999999997 -1.0 3.0
vertex 3.49999999999997 -0.48236190979496 3.06814834742186
endloop
endfacet
facet normal 1.34399782370178e-015 -0.258819045102521 0.965925826289068
outer loop
vertex 3.49999999999997 -0.48236190979496 3.06814834742186
vertex -2.6789681584205e-014 -1.76247905159244e-015 3.26794919243113
vertex -2.7494673204842e-014 -0.48236190979496 3.06814834742187
endloop
endfacet
facet normal 1.20499548337826e-015 -0.5 0.866025403784438
outer loop
vertex -2.6789681584205e-014 -1.76247905159244e-015 3.26794919243113
vertex 3.49999999999997 -0.48236190979496 3.06814834742186
vertex 3.49999999999997 -1.76247905159244e-015 3.26794919243112
endloop
endfacet
facet normal -1.39140893340144e-015 -5.34666593738814e-017 -1.0
outer loop
vertex 3.49999999999998 -1.0 7.0
vertex -2.18547402397462e-014 -1.51763809020504 6.93185165257814
vertex -2.18547402397462e-014 -1.0 7.0
endloop
endfacet
facet normal -1.34399782370178e-015 0.258819045102522 -0.965925826289068
outer loop
vertex -2.18547402397462e-014 -1.51763809020504 6.93185165257814
vertex 3.49999999999998 -1.0 7.0
vertex 3.49999999999998 -1.51763809020504 6.93185165257813
endloop
endfacet
facet normal -1.34399782370178e-015 0.258819045102522 -0.965925826289068
outer loop
vertex -2.18547402397462e-014 -1.51763809020504 6.93185165257814
vertex 3.49999999999998 -2.0 6.73205080756888
vertex -2.25597318603832e-014 -2.0 6.73205080756888
endloop
endfacet
facet normal -1.20499548337826e-015 0.500000000000001 -0.866025403784438
outer loop
vertex 3.49999999999998 -2.0 6.73205080756888
vertex -2.18547402397462e-014 -1.51763809020504 6.93185165257814
vertex 3.49999999999998 -1.51763809020504 6.93185165257813
endloop
endfacet
facet normal -3.60123131490078e-016 0.965925826289068 -0.258819045102521
outer loop
vertex -2.39697151016571e-014 -2.93185165257814 5.51763809020504
vertex 3.49999999999998 -2.73205080756888 6.0
vertex 3.49999999999998 -2.93185165257814 5.51763809020504
endloop
endfacet
facet normal -6.95704466700721e-016 0.866025403784439 -0.5
outer loop
vertex 3.49999999999998 -2.73205080756888 6.0
vertex -2.39697151016571e-014 -2.93185165257814 5.51763809020504
vertex -2.32647234810202e-014 -2.73205080756888 6.0
endloop
endfacet
facet normal -6.95704466700721e-016 0.866025403784439 -0.5
outer loop
vertex -2.32647234810202e-014 -2.73205080756888 6.0
vertex 3.49999999999998 -2.4142135623731 6.41421356237309
vertex 3.49999999999998 -2.73205080756888 6.0
endloop
endfacet
facet normal -9.83874692211701e-016 0.707106781186548 -0.707106781186547
outer loop
vertex 3.49999999999998 -2.4142135623731 6.41421356237309
vertex -2.32647234810202e-014 -2.73205080756888 6.0
vertex -2.25597318603832e-014 -2.4142135623731 6.4142135623731
endloop
endfacet
facet normal -1.20499548337826e-015 0.500000000000001 -0.866025403784438
outer loop
vertex 3.49999999999998 -2.0 6.73205080756888
vertex -2.25597318603832e-014 -2.4142135623731 6.4142135623731
vertex -2.25597318603832e-014 -2.0 6.73205080756888
endloop
endfacet
facet normal -9.83874692211701e-016 0.707106781186548 -0.707106781186547
outer loop
vertex -2.25597318603832e-014 -2.4142135623731 6.4142135623731
vertex 3.49999999999998 -2.0 6.73205080756888
vertex 3.49999999999998 -2.4142135623731 6.41421356237309
endloop
endfacet
facet normal 0.0 -0.258819045102525 0.965925826289067
outer loop
vertex 174.0 -0.482361909794963 3.06814834742186
vertex 170.5 -5.11118924961806e-015 3.26794919243113
vertex 170.5 -0.482361909794963 3.06814834742186
endloop
endfacet
facet normal 0.0 -0.500000000000003 0.866025403784437
outer loop
vertex 170.5 -5.11118924961806e-015 3.26794919243113
vertex 174.0 -0.482361909794963 3.06814834742186
vertex 174.0 -5.11118924961806e-015 3.26794919243113
endloop
endfacet
facet normal 0.0 -0.500000000000003 0.866025403784437
outer loop
vertex 174.0 -5.11118924961806e-015 3.26794919243113
vertex 170.5 0.414213562373089 3.58578643762691
vertex 170.5 -5.11118924961806e-015 3.26794919243113
endloop
endfacet
facet normal 0.0 -0.70710678118655 0.707106781186545
outer loop
vertex 170.5 0.414213562373089 3.58578643762691
vertex 174.0 -5.11118924961806e-015 3.26794919243113
vertex 174.0 0.414213562373089 3.58578643762691
endloop
endfacet
facet normal 0.0 -0.866025403784441 0.499999999999997
outer loop
vertex 174.0 0.732050807568869 4.0
vertex 170.5 0.414213562373089 3.58578643762691
vertex 174.0 0.414213562373089 3.58578643762691
endloop
endfacet
facet normal 0.0 -0.70710678118655 0.707106781186545
outer loop
vertex 170.5 0.414213562373089 3.58578643762691
vertex 174.0 0.732050807568869 4.0
vertex 170.5 0.732050807568869 4.0
endloop
endfacet
facet normal 0.0 -0.965925826289069 0.258819045102517
outer loop
vertex 174.0 0.931851652578127 4.48236190979496
vertex 170.5 0.732050807568869 4.0
vertex 174.0 0.732050807568869 4.0
endloop
endfacet
facet normal 0.0 -0.866025403784441 0.499999999999997
outer loop
vertex 170.5 0.732050807568869 4.0
vertex 174.0 0.931851652578127 4.48236190979496
vertex 170.5 0.931851652578127 4.48236190979496
endloop
endfacet
facet normal 0.0 -1.0 -4.10802166189322e-015
outer loop
vertex 174.0 0.999999999999988 5.00000000000001
vertex 170.5 0.931851652578127 4.48236190979496
vertex 174.0 0.931851652578127 4.48236190979496
endloop
endfacet
facet normal 0.0 -0.965925826289069 0.258819045102517
outer loop
vertex 170.5 0.931851652578127 4.48236190979496
vertex 174.0 0.999999999999988 5.00000000000001
vertex 170.5 0.999999999999988 5.00000000000001
endloop
endfacet
facet normal 0.693641687065796 9.99408124153475e-015 0.720320213491553
outer loop
vertex 160.5 -5.99999999999987 20.9999999999989
vertex 174.0 107.0 8.0
vertex 160.499999999999 103.8 20.9999999999967
endloop
endfacet
facet normal 0.693641687065796 9.99408124153475e-015 0.720320213491553
outer loop
vertex 174.0 107.0 8.0
vertex 160.5 -5.99999999999987 20.9999999999989
vertex 174.0 -6.00000000000002 8.00000000000009
endloop
endfacet
facet normal 0.0 0.86602540378444 -0.499999999999997
outer loop
vertex 170.5 -2.73205080756889 5.99999999999999
vertex 174.0 -2.93185165257815 5.51763809020503
vertex 170.5 -2.93185165257815 5.51763809020503
endloop
endfacet
facet normal 0.0 0.965925826289069 -0.258819045102518
outer loop
vertex 174.0 -2.93185165257815 5.51763809020503
vertex 170.5 -2.73205080756889 5.99999999999999
vertex 174.0 -2.73205080756889 5.99999999999999
endloop
endfacet
facet normal 0.0 0.965925826289069 -0.258819045102518
outer loop
vertex 170.5 -2.93185165257815 5.51763809020503
vertex 174.0 -3.00000000000001 4.99999999999999
vertex 170.5 -3.00000000000001 4.99999999999999
endloop
endfacet
facet normal 0.0 1.0 3.608999507737e-015
outer loop
vertex 174.0 -3.00000000000001 4.99999999999999
vertex 170.5 -2.93185165257815 5.51763809020503
vertex 174.0 -2.93185165257815 5.51763809020503
endloop
endfacet
facet normal 0.0 1.0 3.608999507737e-015
outer loop
vertex 170.5 -3.00000000000001 4.99999999999999
vertex 174.0 -2.93185165257815 4.48236190979495
vertex 170.5 -2.93185165257815 4.48236190979495
endloop
endfacet
facet normal 0.0 0.965925826289067 0.258819045102524
outer loop
vertex 174.0 -2.93185165257815 4.48236190979495
vertex 170.5 -3.00000000000001 4.99999999999999
vertex 174.0 -3.00000000000001 4.99999999999999
endloop
endfacet
facet normal -0.69364168706587 -8.53206549203686e-016 0.720320213491481
outer loop
vertex 1.70036824127043e-014 -6.0 8.00000000000001
vertex 13.4999999999998 103.8 20.9999999999999
vertex 0.0 107.0 8.0
endloop
endfacet
facet normal -0.69364168706587 -8.53206549203686e-016 0.720320213491481
outer loop
vertex 13.4999999999998 103.8 20.9999999999999
vertex 1.70036824127043e-014 -6.0 8.00000000000001
vertex 13.5 -5.99999999999997 20.9999999999998
endloop
endfacet
facet normal 0.0 0.965925826289067 0.258819045102524
outer loop
vertex 170.5 -2.93185165257815 4.48236190979495
vertex 174.0 -2.73205080756889 3.99999999999999
vertex 170.5 -2.73205080756889 3.99999999999999
endloop
endfacet
facet normal 0.0 0.866025403784437 0.500000000000003
outer loop
vertex 174.0 -2.73205080756889 3.99999999999999
vertex 170.5 -2.93185165257815 4.48236190979495
vertex 174.0 -2.93185165257815 4.48236190979495
endloop
endfacet
facet normal 0.0 0.866025403784437 0.500000000000003
outer loop
vertex 170.5 -2.73205080756889 3.99999999999999
vertex 174.0 -2.4142135623731 3.5857864376269
vertex 170.5 -2.4142135623731 3.5857864376269
endloop
endfacet
facet normal 0.0 0.707106781186545 0.70710678118655
outer loop
vertex 174.0 -2.4142135623731 3.5857864376269
vertex 170.5 -2.73205080756889 3.99999999999999
vertex 174.0 -2.73205080756889 3.99999999999999
endloop
endfacet
facet normal 0.0 0.707106781186545 0.70710678118655
outer loop
vertex 174.0 -2.4142135623731 3.5857864376269
vertex 170.5 -2.00000000000001 3.26794919243112
vertex 170.5 -2.4142135623731 3.5857864376269
endloop
endfacet
facet normal 0.0 0.499999999999997 0.86602540378444
outer loop
vertex 170.5 -2.00000000000001 3.26794919243112
vertex 174.0 -2.4142135623731 3.5857864376269
vertex 174.0 -2.00000000000001 3.26794919243112
endloop
endfacet
facet normal 0.0 0.499999999999997 0.86602540378444
outer loop
vertex 174.0 -2.00000000000001 3.26794919243112
vertex 170.5 -1.51763809020505 3.06814834742186
vertex 170.5 -2.00000000000001 3.26794919243112
endloop
endfacet
facet normal 0.0 0.258819045102518 0.965925826289069
outer loop
vertex 170.5 -1.51763809020505 3.06814834742186
vertex 174.0 -2.00000000000001 3.26794919243112
vertex 174.0 -1.51763809020505 3.06814834742186
endloop
endfacet
facet normal 0.0 0.258819045102518 0.965925826289069
outer loop
vertex 174.0 -1.51763809020505 3.06814834742186
vertex 170.5 -1.0 3.0
vertex 170.5 -1.51763809020505 3.06814834742186
endloop
endfacet
facet normal 0.0 -3.94762168377158e-015 1.0
outer loop
vertex 170.5 -1.0 3.0
vertex 174.0 -1.51763809020505 3.06814834742186
vertex 174.0 -1.0 3.0
endloop
endfacet
facet normal 0.0 -3.94762168377158e-015 1.0
outer loop
vertex 174.0 -1.0 3.0
vertex 170.5 -0.482361909794963 3.06814834742186
vertex 170.5 -1.0 3.0
endloop
endfacet
facet normal 0.0 -0.258819045102525 0.965925826289067
outer loop
vertex 170.5 -0.482361909794963 3.06814834742186
vertex 174.0 -1.0 3.0
vertex 174.0 -0.482361909794963 3.06814834742186
endloop
endfacet
facet normal 0.0 -0.965925826289067 -0.258819045102525
outer loop
vertex 174.0 0.931851652578122 5.51763809020505
vertex 170.5 0.999999999999988 5.00000000000001
vertex 174.0 0.999999999999988 5.00000000000001
endloop
endfacet
facet normal 0.0 -1.0 -4.10802166189322e-015
outer loop
vertex 170.5 0.999999999999988 5.00000000000001
vertex 174.0 0.931851652578122 5.51763809020505
vertex 170.5 0.931851652578122 5.51763809020505
endloop
endfacet
facet normal 0.0 -0.866025403784437 -0.500000000000003
outer loop
vertex 174.0 0.732050807568862 6.0
vertex 170.5 0.931851652578122 5.51763809020505
vertex 174.0 0.931851652578122 5.51763809020505
endloop
endfacet
facet normal 0.0 -0.965925826289067 -0.258819045102525
outer loop
vertex 170.5 0.931851652578122 5.51763809020505
vertex 174.0 0.732050807568862 6.0
vertex 170.5 0.732050807568862 6.0
endloop
endfacet
facet normal 0.0 -0.707106781186545 -0.70710678118655
outer loop
vertex 174.0 0.414213562373078 6.4142135623731
vertex 170.5 0.732050807568862 6.0
vertex 174.0 0.732050807568862 6.0
endloop
endfacet
facet normal 0.0 -0.866025403784437 -0.500000000000003
outer loop
vertex 170.5 0.732050807568862 6.0
vertex 174.0 0.414213562373078 6.4142135623731
vertex 170.5 0.414213562373078 6.4142135623731
endloop
endfacet
facet normal 0.0 -0.707106781186545 -0.70710678118655
outer loop
vertex 174.0 0.414213562373078 6.4142135623731
vertex 170.5 -1.79772863262428e-014 6.73205080756888
vertex 170.5 0.414213562373078 6.4142135623731
endloop
endfacet
facet normal 0.0 -0.499999999999997 -0.86602540378444
outer loop
vertex 170.5 -1.79772863262428e-014 6.73205080756888
vertex 174.0 0.414213562373078 6.4142135623731
vertex 174.0 -1.79772863262428e-014 6.73205080756888
endloop
endfacet
facet normal 0.0 -0.499999999999997 -0.86602540378444
outer loop
vertex 174.0 -1.79772863262428e-014 6.73205080756888
vertex 170.5 -0.482361909794977 6.93185165257814
vertex 170.5 -1.79772863262428e-014 6.73205080756888
endloop
endfacet
facet normal 0.0 -0.258819045102517 -0.965925826289069
outer loop
vertex 170.5 -0.482361909794977 6.93185165257814
vertex 174.0 -1.79772863262428e-014 6.73205080756888
vertex 174.0 -0.482361909794977 6.93185165257814
endloop
endfacet
facet normal 0.0 -0.258819045102517 -0.965925826289069
outer loop
vertex 174.0 -0.482361909794977 6.93185165257814
vertex 170.5 -1.00000000000002 7.0
vertex 170.5 -0.482361909794977 6.93185165257814
endloop
endfacet
facet normal 0.0 4.19713276084969e-015 -1.0
outer loop
vertex 170.5 -1.00000000000002 7.0
vertex 174.0 -0.482361909794977 6.93185165257814
vertex 174.0 -1.00000000000002 7.0
endloop
endfacet
facet normal 0.0 4.19713276084969e-015 -1.0
outer loop
vertex 174.0 -1.00000000000002 7.0
vertex 170.5 -1.51763809020506 6.93185165257813
vertex 170.5 -1.00000000000002 7.0
endloop
endfacet
facet normal 0.0 0.258819045102523 -0.965925826289068
outer loop
vertex 170.5 -1.51763809020506 6.93185165257813
vertex 174.0 -1.00000000000002 7.0
vertex 174.0 -1.51763809020506 6.93185165257813
endloop
endfacet
facet normal 0.0 0.258819045102523 -0.965925826289068
outer loop
vertex 174.0 -1.51763809020506 6.93185165257813
vertex 170.5 -2.00000000000002 6.73205080756887
vertex 170.5 -1.51763809020506 6.93185165257813
endloop
endfacet
facet normal 0.0 0.500000000000003 -0.866025403784437
outer loop
vertex 170.5 -2.00000000000002 6.73205080756887
vertex 174.0 -1.51763809020506 6.93185165257813
vertex 174.0 -2.00000000000002 6.73205080756887
endloop
endfacet
facet normal 0.523406952549852 0.523406952549852 0.672376623660396
outer loop
vertex 174.0 107.0 8.0
vertex 172.0 109.0 8.0
vertex 160.499999999999 103.8 20.9999999999967
endloop
endfacet
facet normal 0.0 0.500000000000003 -0.866025403784437
outer loop
vertex 174.0 -2.00000000000002 6.73205080756887
vertex 170.5 -2.41421356237311 6.41421356237309
vertex 170.5 -2.00000000000002 6.73205080756887
endloop
endfacet
facet normal 0.0 0.70710678118655 -0.707106781186545
outer loop
vertex 170.5 -2.41421356237311 6.41421356237309
vertex 174.0 -2.00000000000002 6.73205080756887
vertex 174.0 -2.41421356237311 6.41421356237309
endloop
endfacet
facet normal 0.442661109384085 0.626017344426137 0.641991765302717
outer loop
vertex 172.0 109.0 8.0
vertex 158.802943725151 105.0 20.9999999999967
vertex 160.499999999999 103.8 20.9999999999967
endloop
endfacet
facet normal 0.0 0.70710678118655 -0.707106781186545
outer loop
vertex 170.5 -2.41421356237311 6.41421356237309
vertex 174.0 -2.73205080756889 5.99999999999999
vertex 170.5 -2.73205080756889 5.99999999999999
endloop
endfacet
facet normal 0.0 0.86602540378444 -0.499999999999997
outer loop
vertex 174.0 -2.73205080756889 5.99999999999999
vertex 170.5 -2.41421356237311 6.41421356237309
vertex 174.0 -2.41421356237311 6.41421356237309
endloop
endfacet
endsolid lcdcase
